# xmcd
#
# Track frame offsets:
#	150
#	12932
#	27140
#	40852
#	50842
#	74015
#	85257
#	103952
#	124072
#	133477
#	145525
#	159890
#	179672
#	189275
#
# Disc length: 2703 seconds
# Revision: 0
# Processed by: cddbd v1.5.2PL0 Copyright (c) Steve Scherf et al.
# Submitted via: dBpowerAMP V12.0
#
DISCID=c70a8d0e
DTITLE=Various Artist - Life of Riley
DYEAR=2001
DGENRE=Folk
TTITLE0=Riley Baugus - Cumberland Gap
TTITLE1=Riley Baugus - Pretty Polly
TTITLE2=Riley Baugus - John Brown's Dream
TTITLE3=Riley Baugus - Big Liza's Christmas Holiday
TTITLE4=Riley Baugus - Country Blues
TTITLE5=Riley Baugus - June Apple
TTITLE6=Riley Baugus - Sally Ann
TTITLE7=Riley Baugus - Little Maggie
TTITLE8=Riley Baugus - Cider
TTITLE9=Riley Baugus - Half Shaved
TTITLE10=Riley Baugus - Fortune
TTITLE11=Riley Baugus - Little Satchel
TTITLE12=Riley Baugus - Lost Lover Blues
TTITLE13=Riley Baugus with Laurelyn Dossett - Pouring Out Your Love
EXTD=
EXTT0=
EXTT1=
EXTT2=
EXTT3=
EXTT4=
EXTT5=
EXTT6=
EXTT7=
EXTT8=
EXTT9=
EXTT10=
EXTT11=
EXTT12=
EXTT13=
PLAYORDER=
